<?xml version="1.0" encoding="utf-8"?>
<!-- Generator: Adobe Illustrator 19.0.0, SVG Export Plug-In . SVG Version: 6.00 Build 0)  -->
<!DOCTYPE svg PUBLIC "-//W3C//DTD SVG 1.1//EN" "http://www.w3.org/Graphics/SVG/1.1/DTD/svg11.dtd">
<svg version="1.1" id="Ebene_1" xmlns="http://www.w3.org/2000/svg" xmlns:xlink="http://www.w3.org/1999/xlink" x="0px" y="0px"
	 viewBox="0 0 16 16" style="enable-background:new 0 0 16 16;" xml:space="preserve">
<style type="text/css">
	.st0{fill:none;}
	.st1{fill:#FFFFFF;}
</style>
<g id="XMLID_11_">
	<polygon id="XMLID_12_" points="16,12 12.1,9.7 12.1,11.5 7.3,11.5 7.3,12.5 12.1,12.5 12.1,14.2 	"/>
</g>
<line class="st0" x1="0.5" y1="1.7" x2="0.5" y2="1.7"/>
<line class="st0" x1="0.5" y1="4" x2="0.5" y2="4"/>
<line class="st0" x1="0.5" y1="6.6" x2="0.5" y2="6.6"/>
<g>
	<path d="M7.1,7.1l1.1-1.7l-1-1.6H8l0.7,1.1l0.7-1.1h0.8l-1,1.6l1.1,1.7H9.4L8.6,6L7.9,7.1H7.1z"/>
	<path d="M10.6,7.1V3.8h0.7v2.7h1.6v0.6H10.6z"/>
	<path id="XMLID_141_" d="M13.2,6c0.1,0,0.6,0,0.6,0s0.1,0.3,0.2,0.4c0.3,0.2,0.5,0.2,0.6,0.2c0.3,0,0.8-0.2,0.6-0.6
		c-0.1-0.3-0.7-0.3-0.9-0.4c-0.4-0.1-0.8-0.2-0.9-0.6s0-0.8,0.4-1.1c0.7-0.5,2-0.2,2.1,0.8c-0.1,0-0.7,0-0.7,0S15.1,4.4,15,4.3
		c-0.1-0.1-0.3-0.1-0.4-0.1c-0.4,0-0.6,0.4-0.4,0.6C14.5,5,15,5,15.3,5.1c0.9,0.4,0.9,1.5,0,1.9C14.3,7.4,13.3,7,13.2,6z"/>
</g>
<g>
	<rect x="2.3" y="3.4" class="st1" width="2.6" height="2.6"/>
	<rect y="7" class="st1" width="1.3" height="2.6"/>
	<rect x="2.3" y="10.5" class="st1" width="2.6" height="2.6"/>
	<rect x="2.3" y="7" class="st1" width="2.6" height="2.6"/>
	<rect y="3.4" class="st1" width="1.3" height="2.6"/>
	<rect y="10.5" class="st1" width="1.3" height="2.6"/>
	<path d="M5.9,2.4H0v1h1.3V6H0v1h1.3v2.6H0v1h1.3v2.6H0v1h5.9V2.4z M4.8,13.1H2.3v-2.6h2.6L4.8,13.1L4.8,13.1z M4.8,9.5H2.3V7h2.6
		L4.8,9.5L4.8,9.5z M4.8,6H2.3V3.4h2.6L4.8,6L4.8,6z"/>
</g>
</svg>
