<?xml version="1.0" encoding="utf-8"?>
<!-- Generator: Adobe Illustrator 19.1.0, SVG Export Plug-In . SVG Version: 6.00 Build 0)  -->
<!DOCTYPE svg PUBLIC "-//W3C//DTD SVG 1.1//EN" "http://www.w3.org/Graphics/SVG/1.1/DTD/svg11.dtd">
<svg version="1.1" id="Ebene_1" xmlns="http://www.w3.org/2000/svg" xmlns:xlink="http://www.w3.org/1999/xlink" x="0px" y="0px"
	 viewBox="-412 290.3 16 16" style="enable-background:new -412 290.3 16 16;" xml:space="preserve">
<style type="text/css">
	.st0{fill:none;}
	.st1{fill:#C4D13B;}
	.st2{fill:#4EAF75;}
</style>
<g id="XMLID_11_">
	<polygon id="XMLID_12_" points="-396,302.3 -399.9,300 -399.9,301.8 -404.7,301.8 -404.7,302.8 -399.9,302.8 -399.9,304.5 	"/>
</g>
<line class="st0" x1="-411.5" y1="292" x2="-411.5" y2="292"/>
<line class="st0" x1="-411.5" y1="294.3" x2="-411.5" y2="294.3"/>
<line class="st0" x1="-411.5" y1="296.9" x2="-411.5" y2="296.9"/>
<g>
	<path d="M-404.9,297.4l1.1-1.7l-1-1.6h0.8l0.7,1.1l0.7-1.1h0.8l-1,1.6l1.1,1.7h-0.9l-0.8-1.1l-0.7,1.1H-404.9z"/>
	<path d="M-401.4,297.4v-3.3h0.7v2.7h1.6v0.6H-401.4z"/>
	<path id="XMLID_141_" d="M-398.8,296.3c0.1,0,0.6,0,0.6,0s0.1,0.3,0.2,0.4c0.3,0.2,0.5,0.2,0.6,0.2c0.3,0,0.8-0.2,0.6-0.6
		c-0.1-0.3-0.7-0.3-0.9-0.4c-0.4-0.1-0.8-0.2-0.9-0.6s0-0.8,0.4-1.1c0.7-0.5,2-0.2,2.1,0.8c-0.1,0-0.7,0-0.7,0s-0.1-0.3-0.2-0.4
		c-0.1-0.1-0.3-0.1-0.4-0.1c-0.4,0-0.6,0.4-0.4,0.6c0.3,0.2,0.8,0.2,1.1,0.3c0.9,0.4,0.9,1.5,0,1.9
		C-397.7,297.7-398.7,297.3-398.8,296.3z"/>
</g>
<g>
	<rect x="-409.7" y="293.7" class="st1" width="2.6" height="2.6"/>
	<rect x="-412" y="297.3" class="st1" width="1.3" height="2.6"/>
	<rect x="-409.7" y="300.8" class="st1" width="2.6" height="2.6"/>
	<rect x="-409.7" y="297.3" class="st1" width="2.6" height="2.6"/>
	<rect x="-412" y="293.7" class="st1" width="1.3" height="2.6"/>
	<rect x="-412" y="300.8" class="st1" width="1.3" height="2.6"/>
	<path class="st2" d="M-406.1,292.7h-5.9v1h1.3v2.6h-1.3v1h1.3v2.6h-1.3v1h1.3v2.5h-1.3v1.1h5.9V292.7z M-407.2,303.4h-2.5v-2.6h2.5
		V303.4L-407.2,303.4z M-407.2,299.8h-2.5v-2.5h2.5V299.8L-407.2,299.8z M-407.2,296.3h-2.5v-2.6h2.5V296.3L-407.2,296.3z"/>
</g>
</svg>
