<svg width="16" height="16" viewBox="0 0 16 16" fill="none" xmlns="http://www.w3.org/2000/svg">
<g clip-path="url(#clip0)">
<rect x="0.5" y="0.5" width="3" height="6" fill="white" stroke="#6E6E6E"/>
<rect x="3.5" y="0.5" width="3" height="6" fill="white" stroke="#6E6E6E"/>
<mask id="path-3-inside-1" fill="white">
<path d="M6 0H9V1H7V4H6V0Z"/>
</mask>
<path d="M6 0H9V1H7V4H6V0Z" fill="white"/>
<path d="M6 0V-1H5V0H6ZM9 0H10V-1H9V0ZM7 1V0H6V1H7ZM6 4H5V5H6V4ZM7 4V5H8V4H7ZM9 1V2H10V1H9ZM6 1H9V-1H6V1ZM7 4V0H5V4H7ZM6 1V4H8V1H6ZM7 3H6V5H7V3ZM8 0V1H10V0H8ZM9 0H7V2H9V0Z" fill="#6E6E6E" mask="url(#path-3-inside-1)"/>
<mask id="path-5-inside-2" fill="white">
<path d="M0 3H8V4H0V3Z"/>
</mask>
<path d="M0 3H8V4H0V3Z" fill="#3E3A39"/>
<path d="M0 3V2H-1V3H0ZM8 3H9V2H8V3ZM8 4V5H9V4H8ZM0 4H-1V5H0V4ZM0 4H8V2H0V4ZM7 3V4H9V3H7ZM8 3H0V5H8V3ZM1 4V3H-1V4H1Z" fill="#6E6E6E" mask="url(#path-5-inside-2)"/>
<path d="M0.5 6.5H4.5V8C4.5 8.82843 3.82843 9.5 3 9.5H2C1.17157 9.5 0.5 8.82843 0.5 8V6.5Z" fill="#3E3A39" stroke="#3E3A39"/>
<rect x="7" y="1" width="1" height="2" fill="white"/>
<path d="M7 6H8H9V5H8V4H7V6Z" fill="white"/>
<mask id="path-10-inside-3" fill="white">
<path d="M1 6H7V7H1V6Z"/>
</mask>
<path d="M1 6H7V7H1V6Z" fill="#3E3A39"/>
<path d="M1 6V5H0V6H1ZM7 6H8V5H7V6ZM7 7V8H8V7H7ZM1 7H0V8H1V7ZM1 7H7V5H1V7ZM6 6V7H8V6H6ZM7 6H1V8H7V6ZM2 7V6H0V7H2Z" fill="#3E3A39" mask="url(#path-10-inside-3)"/>
<rect x="6" y="6" width="10" height="10" rx="3" fill="#201E1E"/>
<path d="M8 14L10.3112 10.9931L8 8H9.98661L10.8921 10.0944C10.9757 10.2458 11.033 10.3583 11.064 10.4325H11.0758C11.1352 10.3117 11.1979 10.1944 11.2636 10.0805L12 8H14L11.7553 10.9792L14 14H12L11.1504 11.75C11.1012 11.6755 11.0594 11.5973 11.0255 11.5163H11.01C10.9794 11.5957 10.9387 11.6717 10.8888 11.7428L9.98661 14H8Z" fill="white"/>
<rect x="8" y="13" width="1" height="1" fill="white"/>
<rect x="8" y="8" width="1" height="1" fill="white"/>
<rect x="9" y="9" width="1" height="1" fill="white"/>
<rect x="10" y="10" width="1" height="1" fill="white"/>
<rect x="10" y="11" width="1" height="1" fill="white"/>
<rect x="11" y="11" width="1" height="1" fill="white"/>
<rect x="12" y="12" width="1" height="1" fill="white"/>
<rect x="11" y="10" width="1" height="1" fill="white"/>
<rect x="12" y="9" width="1" height="1" fill="white"/>
<rect x="9" y="12" width="1" height="1" fill="white"/>
<rect x="13" y="13" width="1" height="1" fill="white"/>
<rect x="13" y="8" width="1" height="1" fill="white"/>
<rect x="10" y="13" width="2" height="1" fill="#201E1E"/>
<rect x="10" y="8" width="2" height="1" fill="#201E1E"/>
<path d="M8 3L11 6V4.00002L17 4.00002V2.00002L11 2.00002V0L8 3Z" fill="black"/>
</g>
<defs>
<clipPath id="clip0">
<rect width="16" height="16" fill="white"/>
</clipPath>
</defs>
</svg>
