<?xml version="1.0" encoding="utf-8"?>
<!-- Generator: Adobe Illustrator 19.0.0, SVG Export Plug-In . SVG Version: 6.00 Build 0)  -->
<!DOCTYPE svg PUBLIC "-//W3C//DTD SVG 1.1//EN" "http://www.w3.org/Graphics/SVG/1.1/DTD/svg11.dtd">
<svg version="1.1" id="Ebene_1" xmlns="http://www.w3.org/2000/svg" xmlns:xlink="http://www.w3.org/1999/xlink" x="0px" y="0px"
	 viewBox="0 0 16 16" style="enable-background:new 0 0 16 16;" xml:space="preserve">
<style type="text/css">
	.st0{fill:none;}
</style>
<g id="XMLID_11_">
	<polygon id="XMLID_12_" points="16,13.7 12.1,11.5 12.1,13.2 6.4,13.2 6.4,14.2 12.1,14.2 12.1,16 	"/>
</g>
<line class="st0" x1="0.5" y1="1.1" x2="0.5" y2="1.1"/>
<line class="st0" x1="0.5" y1="3.4" x2="0.5" y2="3.4"/>
<line class="st0" x1="0.5" y1="5.9" x2="0.5" y2="5.9"/>
<g>
	<path d="M2.3,7l1.5-2.2L2.4,2.7h1l0.9,1.4l0.8-1.4h1L4.8,4.8L6.3,7h-1l-1-1.5L3.3,7H2.3z"/>
	<path d="M6.8,7V2.7h0.9v3.5h2.2V7H6.8z"/>
	<path id="XMLID_141_" d="M10.2,5.6c0.2,0,0.8-0.1,0.8-0.1s0.1,0.4,0.2,0.5c0.2,0.2,0.5,0.3,0.7,0.3c0.4,0,1-0.2,0.8-0.7
		c-0.1-0.4-0.9-0.4-1.2-0.5c-0.5-0.1-1-0.3-1.2-0.9c-0.2-0.5,0-1.1,0.5-1.4c1-0.6,2.6-0.2,2.7,1.1c-0.2,0-0.8,0-0.8,0
		s-0.1-0.4-0.3-0.5S12,3.3,11.8,3.3c-0.5,0-0.7,0.5-0.5,0.7c0.4,0.3,0.7,0.2,1.4,0.4C13.9,4.8,14,6.5,12.8,7
		C11.7,7.4,10.4,6.9,10.2,5.6z"/>
</g>
</svg>
